<svg xmlns="http://www.w3.org/2000/svg" xmlns:xlink="http://www.w3.org/1999/xlink" width="150vw" height="100vh" viewBox="0 0 556.044 534.475">
  <defs>
    <linearGradient id="linear-gradient" x1="0.464" y1="0.788" x2="0.888" y2="0.091" gradientUnits="objectBoundingBox">
      <stop offset="0" stop-color="#cef"/>
      <stop offset="1" stop-color="#0089ff"/>
    </linearGradient>
    <clipPath id="clip-path">
      <path id="Path_327" data-name="Path 327" d="M445.954,132.762v-8.215a20.844,20.844,0,0,1-.33-2.752,95.117,95.117,0,0,0-2.333-19.623,98.362,98.362,0,0,0-26.716-49.851A129.1,129.1,0,0,0,382.406,28.1c-15.237-7.652-31.3-12.915-47.837-16.871a368.953,368.953,0,0,0-41.044-7.17c-11.025-1.346-22.091-2.37-33.158-2.852C249.384.7,238.42.522,227.457.2c-.557-.02-1.115-.141-1.672-.2h-5.616c-.805.06-1.61.181-2.416.2C203.8.341,189.82.8,175.884,1.808a438.6,438.6,0,0,0-50.438,6.427A261.806,261.806,0,0,0,79.054,21.29C65.118,26.773,51.966,33.662,40.136,42.962,23.144,56.338,11.17,73.17,5.058,94.038A116.024,116.024,0,0,0,.7,118.823c-.124,1.788-.454,3.555-.7,5.343v8.6a33.292,33.292,0,0,1,.557,3.495,206.837,206.837,0,0,0,6.4,40.17,342.432,342.432,0,0,0,18.334,52.3,614.89,614.89,0,0,0,37.39,71.523c13.461,22.355,28.037,43.926,44.761,63.991a273.657,273.657,0,0,0,37.287,37.479,158.477,158.477,0,0,0,35.862,22.5,107.617,107.617,0,0,0,33.467,8.978c1.92.181,3.82.422,5.74.643h6.731a15.9,15.9,0,0,1,1.652-.3c3.283-.362,6.586-.562,9.848-1.065a112.982,112.982,0,0,0,36.791-12.613c14.886-7.974,28.058-18.3,40.26-29.907a321.392,321.392,0,0,0,36.007-40.973c25.229-33.763,46.433-69.936,64.478-107.977,9.662-20.366,17.817-41.295,23.454-63.127,3.654-14.08,6.38-28.32,6.627-42.922A19.338,19.338,0,0,1,445.954,132.762Z" fill="#cef" clip-rule="evenodd"/>
    </clipPath>
    <clipPath id="clip-path-2">
      <path id="Path_327-2" data-name="Path 327" d="M445.954,132.762v-8.215a20.844,20.844,0,0,1-.33-2.752,95.117,95.117,0,0,0-2.333-19.623,98.362,98.362,0,0,0-26.716-49.851A129.1,129.1,0,0,0,382.406,28.1c-15.237-7.652-31.3-12.915-47.837-16.871a368.953,368.953,0,0,0-41.044-7.17c-11.025-1.346-22.091-2.37-33.158-2.852C249.384.7,238.42.522,227.457.2c-.557-.02-1.115-.141-1.672-.2h-5.616c-.805.06-1.61.181-2.416.2C203.8.341,189.82.8,175.884,1.808a438.6,438.6,0,0,0-50.438,6.427A261.806,261.806,0,0,0,79.054,21.29C65.118,26.773,51.966,33.662,40.136,42.962,23.144,56.338,11.17,73.17,5.058,94.038A116.024,116.024,0,0,0,.7,118.823c-.124,1.788-.454,3.555-.7,5.343v8.6a33.292,33.292,0,0,1,.557,3.495,206.837,206.837,0,0,0,6.4,40.17,342.432,342.432,0,0,0,18.334,52.3,614.89,614.89,0,0,0,37.39,71.523c13.461,22.355,28.037,43.926,44.761,63.991a273.657,273.657,0,0,0,37.287,37.479,158.477,158.477,0,0,0,35.862,22.5,107.617,107.617,0,0,0,33.467,8.978c1.92.181,3.82.422,5.74.643h6.731a15.9,15.9,0,0,1,1.652-.3c3.283-.362,6.586-.562,9.848-1.065a112.982,112.982,0,0,0,36.791-12.613c14.886-7.974,28.058-18.3,40.26-29.907a321.392,321.392,0,0,0,36.007-40.973c25.229-33.763,46.433-69.936,64.478-107.977,9.662-20.366,17.817-41.295,23.454-63.127,3.654-14.08,6.38-28.32,6.627-42.922A19.338,19.338,0,0,1,445.954,132.762Z" fill="url(#linear-gradient)" clip-rule="evenodd"/>
    </clipPath>
  </defs>
  <g id="Group_2346" data-name="Group 2346" transform="translate(-102.447 239.091)">
    <g id="Group_1947" data-name="Group 1947" transform="matrix(-0.966, -0.259, 0.259, -0.966, 533.206, 295.384)">
      <g id="Group_159" data-name="Group 159" transform="translate(0)" clip-path="url(#clip-path)">
        <g id="Group_158" data-name="Group 158" transform="translate(0 0)">
          <path id="Path_326" data-name="Path 326" d="M0,433.836H445.954V0H0Z" fill="#cef"/>
        </g>
      </g>
    </g>
    <g id="Group_160" data-name="Group 160" transform="matrix(-0.966, -0.259, 0.259, -0.966, 546.206, 295.384)">
      <g id="Group_159-2" data-name="Group 159" transform="translate(0)" clip-path="url(#clip-path-2)">
        <g id="Group_158-2" data-name="Group 158" transform="translate(0 0)">
          <path id="Path_326-2" data-name="Path 326" d="M0,433.836H445.954V0H0Z" fill="url(#linear-gradient)"/>
        </g>
      </g>
    </g>
    <text id="meNTUor" transform="translate(174 102)" fill="#f0f2f6" font-size="1.8rem" font-family="Gotham-Bold, Gotham" font-weight="700"><tspan x="0" y="0">NTUcheduler</tspan></text>
  </g>
</svg>
